<svg id="Layer_1" data-name="Layer 1" xmlns="http://www.w3.org/2000/svg" viewBox="0 0 757.2 760.25"><defs><style>.cls-1{fill:#fff;}</style></defs><path class="cls-1" d="M679.11,332.06,562,258.8l-.07,0a220.74,220.74,0,0,0-60.4-60.93,220,220,0,0,0-305.23,59.34c-.31.45-.61.91-.91,1.36a43.71,43.71,0,0,0,13.41,61.27l31.58,19.66,235.66,146.7a147.29,147.29,0,0,1-17,13.4,143.92,143.92,0,0,1-199-37.55c-.35-.46-.68-.93-1-1.39a143.94,143.94,0,0,1-8.2-13.74l-92-57.56L77.18,338.18a301.24,301.24,0,0,1,21-76.35,305.81,305.81,0,0,1,190-172.32A304.83,304.83,0,0,1,496.89,99.75,306.36,306.36,0,0,1,625.25,202.12a16.67,16.67,0,0,0,4.67,4.38l74.75,46.78c13.8,8.63,30.64-5.58,24.31-20.57-.06-.15-.12-.3-.19-.45A381.46,381.46,0,0,0,491.54,17.13a380.42,380.42,0,0,0-260.8,12.81A381.4,381.4,0,0,0,15.61,267.19,376.34,376.34,0,0,0,.26,343.07a55.82,55.82,0,0,0,26,52.68L78.1,428.19v0l117.08,73.24.07,0a219.9,219.9,0,0,0,365.63,1.58l.26-.37c13.74-20.43,7.48-48.24-13.42-61.25L516.46,422,280.21,275a145.77,145.77,0,0,1,17.89-14.27,143.84,143.84,0,0,1,192,28.23q4.24,5.16,8,10.72a142.56,142.56,0,0,1,8.2,13.73l92,57.56L680,422.07a301.52,301.52,0,0,1-21,76.35,306.46,306.46,0,0,1-110.42,134A304,304,0,0,1,260.31,660.5a306.28,306.28,0,0,1-125.22-98.11,15.53,15.53,0,0,0-4.18-3.86L50.75,508.37c-12.86-8-28.43,5.24-22.52,19.2l.18.42A379.93,379.93,0,0,0,378.6,760.25a378.33,378.33,0,0,0,147.87-29.93A381.53,381.53,0,0,0,741.6,493.06a376.29,376.29,0,0,0,15.34-75.89,55.79,55.79,0,0,0-26-52.68Z"/></svg>